<svg width="40" height="40" viewBox="0 0 40 40" fill="none" xmlns="http://www.w3.org/2000/svg">
<path d="M19.6089 2.38262C19.7025 2.26341 19.8219 2.16701 19.9582 2.10073C20.0945 2.03444 20.2441 2 20.3956 2C20.5471 2 20.6967 2.03444 20.833 2.10073C20.9693 2.16701 21.0887 2.26341 21.1823 2.38262L24.1973 6.21596C24.3196 6.37187 24.4856 6.4879 24.674 6.54933C24.8624 6.61075 25.0649 6.6148 25.2556 6.56096L29.9473 5.23096C30.093 5.18944 30.2462 5.18156 30.3953 5.20792C30.5445 5.23428 30.6857 5.29418 30.8084 5.3831C30.931 5.47203 31.0318 5.58766 31.1033 5.72125C31.1747 5.85485 31.2148 6.00292 31.2206 6.15429L31.4039 11.0293C31.4116 11.2273 31.478 11.4186 31.5946 11.5788C31.7113 11.7391 31.8729 11.8611 32.0589 11.9293L36.6373 13.6126C36.7794 13.6648 36.9078 13.7485 37.0129 13.8575C37.118 13.9665 37.1969 14.0979 37.2438 14.2419C37.2906 14.3859 37.3042 14.5386 37.2834 14.6885C37.2627 14.8385 37.2081 14.9818 37.1239 15.1076L34.4073 19.1593C34.2969 19.324 34.238 19.5177 34.238 19.716C34.238 19.9142 34.2969 20.1079 34.4073 20.2726L37.1239 24.3243C37.2081 24.4501 37.2627 24.5934 37.2834 24.7434C37.3042 24.8933 37.2906 25.046 37.2438 25.19C37.1969 25.334 37.118 25.4654 37.0129 25.5744C36.9078 25.6834 36.7794 25.7671 36.6373 25.8193L32.0589 27.5026C31.8732 27.5711 31.7119 27.6932 31.5956 27.8534C31.4793 28.0136 31.4132 28.2048 31.4056 28.4026L31.2206 33.2776C31.2148 33.429 31.1747 33.5771 31.1033 33.7107C31.0318 33.8443 30.931 33.9599 30.8084 34.0488C30.6857 34.1377 30.5445 34.1976 30.3953 34.224C30.2462 34.2504 30.093 34.2425 29.9473 34.201L25.2556 32.871C25.0648 32.8166 24.8621 32.8202 24.6734 32.8813C24.4846 32.9425 24.3183 33.0584 24.1956 33.2143L21.1839 37.0493C21.0904 37.1685 20.9709 37.2649 20.8347 37.3312C20.6984 37.3975 20.5488 37.4319 20.3973 37.4319C20.2457 37.4319 20.0962 37.3975 19.9599 37.3312C19.8236 37.2649 19.7042 37.1685 19.6106 37.0493L16.5956 33.216C16.4732 33.06 16.3073 32.944 16.1189 32.8826C15.9304 32.8212 15.728 32.8171 15.5373 32.871L10.8456 34.201C10.6999 34.2425 10.5467 34.2504 10.3975 34.224C10.2484 34.1976 10.1071 34.1377 9.9845 34.0488C9.86186 33.9599 9.76103 33.8443 9.68962 33.7107C9.61821 33.5771 9.57808 33.429 9.57227 33.2776L9.38894 28.4026C9.38123 28.2046 9.31485 28.0133 9.19823 27.8531C9.08161 27.6928 8.92001 27.5708 8.73394 27.5026L4.1556 25.8193C4.01347 25.7671 3.88503 25.6834 3.77997 25.5744C3.67491 25.4654 3.59598 25.334 3.54911 25.19C3.50225 25.046 3.48869 24.8933 3.50944 24.7434C3.5302 24.5934 3.58473 24.4501 3.66894 24.3243L6.3856 20.2726C6.49595 20.1079 6.55487 19.9142 6.55487 19.716C6.55487 19.5177 6.49595 19.324 6.3856 19.1593L3.66894 15.1076C3.58473 14.9818 3.5302 14.8385 3.50944 14.6885C3.48869 14.5386 3.50225 14.3859 3.54911 14.2419C3.59598 14.0979 3.67491 13.9665 3.77997 13.8575C3.88503 13.7485 4.01347 13.6648 4.1556 13.6126L8.73394 11.9293C8.9197 11.8608 9.08095 11.7387 9.19726 11.5785C9.31356 11.4183 9.37969 11.2271 9.38727 11.0293L9.57227 6.15429C9.57808 6.00292 9.61821 5.85485 9.68962 5.72125C9.76103 5.58766 9.86186 5.47203 9.9845 5.3831C10.1071 5.29418 10.2484 5.23428 10.3975 5.20792C10.5467 5.18156 10.6999 5.18944 10.8456 5.23096L15.5373 6.56096C15.728 6.6148 15.9304 6.61075 16.1189 6.54933C16.3073 6.4879 16.4732 6.37187 16.5956 6.21596L19.6123 2.38262H19.6089Z" stroke="#1866FF" stroke-width="1.5"/>
<path d="M15.3955 19.716L18.7288 23.0493L25.3955 16.3826" stroke="#1866FF" stroke-width="1.5" stroke-linecap="round" stroke-linejoin="round"/>
</svg>
