<svg width="40" height="40" viewBox="0 0 40 40" fill="none" xmlns="http://www.w3.org/2000/svg">
<path d="M20.2273 0.945679C19.9376 0.945377 19.6793 1.12774 19.5844 1.39932L18.0707 5.71945L13.4609 5.81199C13.1711 5.81744 12.9165 6.00464 12.827 6.27833C12.7375 6.55202 12.8327 6.85203 13.0641 7.02531L16.737 9.78914L15.4033 14.1673C15.3195 14.4425 15.4205 14.7398 15.6549 14.9089C15.8893 15.0776 16.2056 15.0807 16.4433 14.9161L20.2273 12.3032L24.0099 14.9161C24.2476 15.0807 24.564 15.0776 24.7984 14.9089C25.0328 14.7398 25.1338 14.4425 25.05 14.1673L23.7163 9.78914L27.3892 7.02531C27.6205 6.85202 27.7158 6.55201 27.6263 6.27833C27.5368 6.00463 27.2821 5.81743 26.9924 5.81199L22.3826 5.71945L20.8702 1.39932C20.7752 1.12774 20.5172 0.945377 20.2272 0.945679H20.2273ZM20.2273 3.67777L21.2528 6.60704C21.3469 6.87348 21.5982 7.05342 21.8825 7.05826L25.0077 7.12177L22.5148 8.9965L22.5151 8.9968C22.2895 9.16737 22.1949 9.45921 22.2768 9.72836L23.1819 12.7L20.6162 10.9284C20.3827 10.7669 20.0721 10.7669 19.8383 10.9284L17.2714 12.7L18.1765 9.72836C18.2584 9.45921 18.1638 9.16737 17.9382 8.9968L15.4456 7.12176L18.5709 7.05825C18.8551 7.05341 19.1065 6.87347 19.2005 6.60704L20.2273 3.67777ZM20.1544 17.488C17.3691 17.488 15.0882 19.7447 15.0882 22.5146C15.0882 24.2572 15.9912 25.7938 17.3545 26.6944C15.2766 27.4886 13.6296 29.1413 12.859 31.2153C12.139 29.969 11.0224 28.9789 9.68208 28.417C10.7339 27.6352 11.418 26.3838 11.418 24.9797C11.418 22.6244 9.49395 20.6995 7.13781 20.6995C4.7816 20.6995 2.85639 22.6244 2.85639 24.9797C2.85639 26.3796 3.53563 27.6283 4.5817 28.4103C2.19135 29.405 0.512021 31.76 0.512021 34.5059V37.946H0.511719C0.512626 38.3186 0.814139 38.6204 1.18673 38.622H39.1227H39.1224C39.495 38.6204 39.7965 38.3186 39.7974 37.946V34.5059C39.7974 31.7639 38.1183 29.4113 35.7316 28.4145C36.7825 27.6327 37.4663 26.3822 37.4663 24.9799C37.4663 22.6246 35.5371 20.6997 33.1807 20.6997C30.8245 20.6997 28.9005 22.6246 28.9005 24.9799C28.9005 26.3819 29.5822 27.6328 30.6312 28.4145C29.2885 28.9755 28.1714 29.9659 27.4503 31.2143C26.6795 29.1409 25.0325 27.4888 22.9545 26.6946C24.3173 25.794 25.2197 24.2574 25.2197 22.5148C25.2197 19.7453 22.9401 17.4882 20.1547 17.4882L20.1544 17.488ZM20.1544 18.8441C22.2142 18.8441 23.8646 20.4836 23.8646 22.5143C23.8646 24.545 22.2143 26.1794 20.1544 26.1794C18.0947 26.1794 16.443 24.5451 16.443 22.5143C16.443 20.4835 18.0946 18.8441 20.1544 18.8441ZM7.13774 22.054C8.76232 22.054 10.0631 23.3569 10.0631 24.9794C10.0631 26.6019 8.76232 27.9047 7.13774 27.9047C5.51315 27.9047 4.21241 26.6019 4.21241 24.9794C4.21241 23.3569 5.51315 22.054 7.13774 22.054ZM33.1804 22.054C34.805 22.054 36.1111 23.3569 36.1111 24.9794C36.1111 26.6016 34.8056 27.9041 33.1819 27.9047H33.1807C31.5561 27.9047 30.2553 26.6019 30.2553 24.9794C30.2553 23.3569 31.5561 22.054 33.1807 22.054H33.1804ZM20.1544 27.5358C23.7251 27.5358 26.57 30.3547 26.57 33.8706V37.2657L13.7384 37.266V33.8709C13.7384 30.3547 16.5836 27.5361 20.154 27.5361L20.1544 27.5358ZM7.12148 29.2599H7.1372C10.0562 29.2684 12.3821 31.5965 12.3821 34.5061V37.266H1.86069V34.5061C1.86069 31.5911 4.19507 29.2599 7.12133 29.2599H7.12148ZM33.1804 29.2599C36.1067 29.2599 38.441 31.591 38.441 34.5061V37.266H27.925V34.5061C27.925 31.5911 30.254 29.2599 33.1802 29.2599H33.1804Z" fill="#1866FF"/>
</svg>
