<svg width="36" height="36" viewBox="0 0 36 36" fill="none" xmlns="http://www.w3.org/2000/svg">
<path d="M34.6163 28.55C34.6163 29.15 34.483 29.7667 34.1997 30.3667C33.9163 30.9667 33.5497 31.5333 33.0663 32.0667C32.2497 32.9667 31.3497 33.6167 30.333 34.0333C29.333 34.45 28.2497 34.6667 27.083 34.6667C25.383 34.6667 23.5663 34.2667 21.6497 33.45C19.733 32.6333 17.8163 31.5333 15.9163 30.15C13.9997 28.75 12.183 27.2 10.4497 25.4833C8.73301 23.75 7.18301 21.9333 5.79967 20.0333C4.43301 18.1333 3.33301 16.2333 2.53301 14.35C1.73301 12.45 1.33301 10.6333 1.33301 8.90001C1.33301 7.76668 1.53301 6.68334 1.93301 5.68334C2.33301 4.66668 2.96634 3.73334 3.84967 2.90001C4.91634 1.85001 6.08301 1.33334 7.31634 1.33334C7.78301 1.33334 8.24967 1.43334 8.66634 1.63334C9.09967 1.83334 9.48301 2.13334 9.78301 2.56668L13.6497 8.01668C13.9497 8.43334 14.1663 8.81668 14.3163 9.18334C14.4663 9.53334 14.5497 9.88334 14.5497 10.2C14.5497 10.6 14.433 11 14.1997 11.3833C13.983 11.7667 13.6663 12.1667 13.2663 12.5667L11.9997 13.8833C11.8163 14.0667 11.733 14.2833 11.733 14.55C11.733 14.6833 11.7497 14.8 11.783 14.9333C11.833 15.0667 11.883 15.1667 11.9163 15.2667C12.2163 15.8167 12.733 16.5333 13.4663 17.4C14.2163 18.2667 15.0163 19.15 15.883 20.0333C16.783 20.9167 17.6497 21.7333 18.533 22.4833C19.3997 23.2167 20.1163 23.7167 20.683 24.0167C20.7663 24.05 20.8663 24.1 20.983 24.15C21.1163 24.2 21.2497 24.2167 21.3997 24.2167C21.683 24.2167 21.8997 24.1167 22.083 23.9333L23.3497 22.6833C23.7663 22.2667 24.1663 21.95 24.5497 21.75C24.933 21.5167 25.3163 21.4 25.733 21.4C26.0497 21.4 26.383 21.4667 26.7497 21.6167C27.1163 21.7667 27.4997 21.9833 27.9163 22.2667L33.433 26.1833C33.8663 26.4833 34.1663 26.8333 34.3497 27.25C34.5163 27.6667 34.6163 28.0833 34.6163 28.55Z" stroke="#1866FF" stroke-width="1.5" stroke-miterlimit="10"/>
<path d="M28.8333 13C28.8333 12 28.05 10.4667 26.8833 9.21669C25.8167 8.06669 24.4 7.16669 23 7.16669" stroke="#1866FF" stroke-width="1.5" stroke-linecap="round" stroke-linejoin="round"/>
<path d="M34.6667 13C34.6667 6.55001 29.45 1.33334 23 1.33334" stroke="#1866FF" stroke-width="1.5" stroke-linecap="round" stroke-linejoin="round"/>
</svg>
