<svg width="37" height="47" viewBox="0 0 37 47" fill="none" xmlns="http://www.w3.org/2000/svg">
<path d="M1 6.22502C1 3.83188 1 2.63531 1.49919 1.97571C1.93408 1.40109 2.59878 1.0455 3.31834 1.00256C4.14429 0.953263 5.14033 1.617 7.13241 2.94448L33.0561 20.2195C34.7021 21.3163 35.5252 21.8648 35.8119 22.556C36.0627 23.1604 36.0627 23.8396 35.8119 24.444C35.5252 25.1352 34.7021 25.6837 33.0561 26.7805L7.13241 44.0555C5.14033 45.383 4.14429 46.0467 3.31834 45.9974C2.59878 45.9545 1.93408 45.5989 1.49919 45.0243C1 44.3647 1 43.1681 1 40.775V6.22502Z" stroke="white" stroke-width="2" stroke-linecap="round" stroke-linejoin="round"/>
</svg>
