<svg width="100" height="88" viewBox="0 0 100 88" fill="none" xmlns="http://www.w3.org/2000/svg">
<path d="M90.625 0.25H65.625C60.4492 0.25 56.25 4.44922 56.25 9.625V34.625C56.25 39.8008 60.4492 44 65.625 44H81.25V56.5C81.25 63.3945 75.6445 69 68.75 69H67.1875C64.5898 69 62.5 71.0898 62.5 73.6875V83.0625C62.5 85.6602 64.5898 87.75 67.1875 87.75H68.75C86.0156 87.75 100 73.7656 100 56.5V9.625C100 4.44922 95.8008 0.25 90.625 0.25ZM34.375 0.25H9.375C4.19922 0.25 0 4.44922 0 9.625V34.625C0 39.8008 4.19922 44 9.375 44H25V56.5C25 63.3945 19.3945 69 12.5 69H10.9375C8.33984 69 6.25 71.0898 6.25 73.6875V83.0625C6.25 85.6602 8.33984 87.75 10.9375 87.75H12.5C29.7656 87.75 43.75 73.7656 43.75 56.5V9.625C43.75 4.44922 39.5508 0.25 34.375 0.25Z" fill="#F3F3F3"/>
</svg>
