<svg width="25" height="23" viewBox="0 0 25 23" fill="none" xmlns="http://www.w3.org/2000/svg">
<path d="M22.6562 0.5625H16.4062C15.1123 0.5625 14.0625 1.6123 14.0625 2.90625V9.15625C14.0625 10.4502 15.1123 11.5 16.4062 11.5H20.3125V14.625C20.3125 16.3486 18.9111 17.75 17.1875 17.75H16.7969C16.1475 17.75 15.625 18.2725 15.625 18.9219V21.2656C15.625 21.915 16.1475 22.4375 16.7969 22.4375H17.1875C21.5039 22.4375 25 18.9414 25 14.625V2.90625C25 1.6123 23.9502 0.5625 22.6562 0.5625ZM8.59375 0.5625H2.34375C1.0498 0.5625 0 1.6123 0 2.90625V9.15625C0 10.4502 1.0498 11.5 2.34375 11.5H6.25V14.625C6.25 16.3486 4.84863 17.75 3.125 17.75H2.73438C2.08496 17.75 1.5625 18.2725 1.5625 18.9219V21.2656C1.5625 21.915 2.08496 22.4375 2.73438 22.4375H3.125C7.44141 22.4375 10.9375 18.9414 10.9375 14.625V2.90625C10.9375 1.6123 9.8877 0.5625 8.59375 0.5625Z" fill="#1866FF"/>
</svg>
