<svg width="60" height="60" viewBox="0 0 60 60" fill="none" xmlns="http://www.w3.org/2000/svg">
<path d="M42.055 24.5747C41.644 24.5747 41.3101 24.9086 41.3101 25.3196V28.3248H38.3177V17.0873C38.3177 13.3628 35.2996 10.3447 31.5752 10.3447H28.5699C24.8455 10.3447 21.8274 13.3628 21.8274 17.0873V28.3248H18.835V25.3324C18.835 24.9214 18.5011 24.5875 18.0901 24.5875C17.6791 24.5875 17.3452 24.9214 17.3452 25.3324V28.3248C17.3452 35.1058 22.6493 40.654 29.3276 41.0393V50.7999H22.5851C22.1741 50.7999 21.8402 51.1338 21.8402 51.5448C21.8402 51.9557 22.1741 52.2897 22.5851 52.2897H37.56C37.9709 52.2897 38.3048 51.9557 38.3048 51.5448C38.3048 51.1338 37.9709 50.7999 37.56 50.7999H30.8174V41.0393C37.4957 40.654 42.7999 35.1058 42.7999 28.3248V25.3324C42.7999 24.9086 42.4659 24.5747 42.055 24.5747ZM23.33 27.5799H27.0801C27.4911 27.5799 27.825 27.246 27.825 26.835C27.825 26.424 27.4911 26.0901 27.0801 26.0901H23.33V23.8298H27.0801C27.4911 23.8298 27.825 23.4959 27.825 23.0849C27.825 22.6739 27.4911 22.34 27.0801 22.34H23.33V20.0925H27.0801C27.4911 20.0925 27.825 19.7586 27.825 19.3476C27.825 18.9366 27.4911 18.6027 27.0801 18.6027H23.33V17.1001C23.33 14.2104 25.6803 11.8602 28.5699 11.8602H31.5623C34.452 11.8602 36.8022 14.2104 36.8022 17.1001V18.6027H33.0649C32.654 18.6027 32.32 18.9366 32.32 19.3476C32.32 19.7586 32.654 20.0925 33.0649 20.0925H36.8151V22.34H33.0649C32.654 22.34 32.32 22.6739 32.32 23.0849C32.32 23.4959 32.654 23.8298 33.0649 23.8298H36.8151V26.0773H33.0649C32.654 26.0773 32.32 26.4112 32.32 26.8222C32.32 27.2331 32.654 27.5671 33.0649 27.5671H36.8151V29.0697C36.8151 31.9593 34.4648 34.3096 31.5752 34.3096H28.5699C25.6803 34.3096 23.33 31.9593 23.33 29.0697V27.5799ZM30.0725 39.5623C24.3831 39.5623 19.6698 35.3113 18.9377 29.8274H21.8788C22.2512 33.1923 25.1152 35.8251 28.5828 35.8251H31.5752C35.0427 35.8251 37.9067 33.2051 38.2792 29.8274H41.2202C40.4753 35.3113 35.7619 39.5623 30.0725 39.5623Z" fill="#1866FF"/>
<path d="M45.2847 16.3113C46.7401 17.7659 47.6414 19.7235 47.6414 21.8667C47.6414 24.0177 46.7483 25.9753 45.2847 27.4222C45.1028 27.6001 45.111 27.8864 45.3095 28.0567C45.508 28.2269 45.8056 28.2191 45.9876 28.0334C47.6083 26.4163 48.6006 24.2421 48.6006 21.859C48.6006 19.4682 47.6083 17.3017 45.9876 15.6846C45.8056 15.5066 45.4997 15.4911 45.3095 15.6614C45.111 15.8471 45.1028 16.1333 45.2847 16.3113Z" fill="#1866FF" stroke="#1866FF" stroke-width="0.5"/>
<path d="M48.7524 12.8669C51.5748 15.3088 53.3211 18.698 53.3211 22.4339C53.3211 26.1698 51.5748 29.5591 48.7524 32.0009C48.5495 32.178 48.5495 32.4631 48.7524 32.6402C48.9553 32.8174 49.2816 32.8174 49.4756 32.6402C52.4832 30.0289 54.3442 26.4163 54.3442 22.4339C54.3442 18.4438 52.4832 14.8312 49.4756 12.2276C49.2728 12.0504 48.9464 12.0504 48.7524 12.2276C48.5495 12.4048 48.5495 12.6898 48.7524 12.8669Z" fill="#1866FF" stroke="#1866FF" stroke-width="0.5"/>
<path d="M52.189 8.30237C55.7936 11.8718 58.0388 16.8897 58.0388 22.4358C58.0388 27.99 55.7936 32.9999 52.189 36.5693C52.0103 36.7454 52.0025 37.0415 52.1735 37.2255C52.3444 37.4096 52.6318 37.4176 52.8105 37.2416C56.586 33.5121 58.9399 28.2541 58.9399 22.4438C58.9399 16.6256 56.586 11.3676 52.8105 7.63012C52.6318 7.45405 52.3444 7.45405 52.1735 7.64612C52.0025 7.83019 52.0025 8.12631 52.189 8.30237Z" fill="#1866FF" stroke="#1866FF" stroke-width="0.5"/>
<path d="M15.1552 28.5578C13.6999 27.1032 12.7986 25.1457 12.7986 23.0024C12.7986 20.8514 13.6916 18.8938 15.1552 17.447C15.3372 17.269 15.3289 16.9827 15.1304 16.8125C14.932 16.6423 14.6343 16.65 14.4524 16.8357C12.8316 18.4528 11.8394 20.627 11.8394 23.0101C11.8394 25.401 12.8316 27.5675 14.4524 29.1846C14.6343 29.3625 14.9402 29.378 15.1304 29.2078C15.3289 29.0221 15.3372 28.7358 15.1552 28.5578Z" fill="#1866FF" stroke="#1866FF" stroke-width="0.5"/>
<path d="M11.6871 32.0022C8.86468 29.5604 7.11833 26.1711 7.11833 22.4352C7.11833 18.6993 8.86468 15.3101 11.6871 12.8683C11.8899 12.6911 11.8899 12.4061 11.6871 12.2289C11.4842 12.0518 11.1579 12.0518 10.9638 12.2289C7.95623 14.8402 6.09522 18.4528 6.09522 22.4352C6.09522 26.4253 7.95622 30.038 10.9638 32.6415C11.1667 32.8187 11.493 32.8187 11.6871 32.6415C11.8899 32.4644 11.8899 32.1794 11.6871 32.0022Z" fill="#1866FF" stroke="#1866FF" stroke-width="0.5"/>
<path d="M8.25095 36.5677C4.6463 32.9984 2.40116 27.9804 2.40116 22.4343C2.40116 16.8801 4.6463 11.8702 8.25095 8.30082C8.42963 8.12476 8.4374 7.82864 8.26649 7.64457C8.09558 7.4605 7.80814 7.4525 7.62946 7.62857C3.8539 11.358 1.5 16.616 1.5 22.4263C1.5 28.2445 3.8539 33.5026 7.62946 37.24C7.80813 37.4161 8.09557 37.4161 8.26648 37.224C8.43739 37.0399 8.43739 36.7438 8.25095 36.5677Z" fill="#1866FF" stroke="#1866FF" stroke-width="0.5"/>
</svg>
