<svg width="48" height="60" viewBox="0 0 48 60" fill="none" xmlns="http://www.w3.org/2000/svg">
<path d="M38.0238 36.7046C36.9065 36.3096 35.6875 36.1177 34.2879 36.1177C32.7642 36.1177 31.1615 36.3322 29.0622 36.8288C28.9719 36.8513 28.8703 36.8288 28.7913 36.7723C26.8726 35.4179 25.2022 33.7024 23.9719 31.8175C23.4302 30.9936 22.9448 30.1696 22.5159 29.357C22.4708 29.2667 22.4595 29.1651 22.5047 29.0635C23.4414 26.8062 24.4347 24.1538 24.2654 21.1403C24.1412 18.9507 23.2044 17.4834 21.9403 17.4834C21.0825 17.4834 20.3263 18.1606 19.683 19.4924C18.4866 21.9981 18.8139 25.2373 20.6536 29.12C20.6988 29.2103 20.6988 29.3118 20.6649 29.4021C19.9877 31.0048 19.3557 32.664 18.7349 34.2667L18.7236 34.3006C17.9674 36.287 17.1773 38.3525 16.297 40.3051C16.2631 40.3841 16.1954 40.4518 16.1164 40.4857C13.6559 41.4563 11.6582 42.6301 9.97644 44.0748C8.91549 44.989 7.62881 46.3773 7.56109 47.7881C7.52723 48.4089 7.74167 48.9845 8.18185 49.4473C8.64461 49.9439 9.23152 50.2035 9.87486 50.2035C12.1886 50.2035 14.5475 46.7385 14.8071 46.3434C15.6988 45.0116 16.5227 43.5218 17.3354 41.8062C17.3692 41.7272 17.4369 41.6595 17.5272 41.6369C19.6266 40.8807 21.8275 40.3276 23.9606 39.7859L24.7281 39.594C25.315 39.4473 25.9358 39.278 26.5001 39.12L26.7259 39.0635C27.3015 38.9055 27.8997 38.7475 28.4979 38.5895C28.5882 38.5669 28.6898 38.5782 28.7575 38.6346C30.9019 40.0003 33.227 40.892 35.4618 41.2193C37.3466 41.4902 38.9832 41.3322 40.0667 40.7678C40.9019 40.3389 40.9922 39.7182 40.9697 39.3796C40.9697 39.3796 40.9697 39.3796 40.9697 39.3683C40.8455 37.8107 38.0464 36.7159 38.0238 36.7046ZM14.683 43.5218C14.3105 44.199 13.9042 44.8536 13.4979 45.4744C12.6288 46.7836 10.9245 48.6346 9.86357 48.6346C9.71684 48.6346 9.52497 48.6008 9.29924 48.3638C9.15251 48.217 9.09608 48.059 9.10736 47.8559C9.14122 47.0884 10.1006 46.0048 10.9922 45.2486C11.9516 44.4247 13.0013 43.7136 14.2315 43.059C14.2541 43.0477 14.2767 43.0364 14.2992 43.0364C14.3105 43.0364 14.3218 43.0252 14.3444 43.0252C14.4234 43.0139 14.5024 43.0252 14.5701 43.059C14.7168 43.1493 14.7733 43.3638 14.683 43.5218ZM21.0825 20.1696C21.2744 19.7746 21.4663 19.4699 21.6469 19.2667C21.7146 19.1877 21.8162 19.1538 21.929 19.1538C22.0306 19.1651 22.1322 19.2215 22.1886 19.3118C22.4031 19.6504 22.6514 20.3276 22.7078 21.2306C22.7981 22.8107 22.5272 24.4473 21.8613 26.3886C21.8162 26.524 21.6807 26.6143 21.5453 26.6143C21.3986 26.6143 21.2744 26.524 21.2293 26.3886C20.3602 23.8829 20.315 21.7836 21.0825 20.1696ZM26.5791 37.269C26.5566 37.3931 26.455 37.4947 26.3421 37.5173L26.2293 37.5511C26.1728 37.5624 26.1277 37.5737 26.0712 37.5963L25.981 37.6188C25.394 37.7769 24.8523 37.9236 24.3105 38.059L23.5317 38.2622C22.0193 38.6459 20.4618 39.041 18.9381 39.5037C18.9042 39.515 18.8703 39.515 18.8365 39.515C18.7462 39.515 18.6559 39.4811 18.5882 39.4021C18.4979 39.3006 18.4753 39.1651 18.5317 39.041C19.1074 37.6527 19.6491 36.2419 20.1683 34.8762L20.2022 34.7746C20.5859 33.7588 20.9922 32.6978 21.4098 31.6708C21.455 31.5466 21.5679 31.4676 21.692 31.4563C21.8162 31.445 21.9403 31.5127 22.008 31.6143C22.2112 31.9529 22.4369 32.3028 22.6627 32.6527C23.6898 34.2215 24.9764 35.655 26.4663 36.9304C26.5679 37.0206 26.613 37.1561 26.5791 37.269ZM38.9832 39.4473C38.9381 39.5037 38.8703 39.5489 38.8026 39.5714C38.3624 39.7069 37.7981 39.7633 37.1773 39.7633C36.7033 39.7633 36.1954 39.7294 35.6762 39.6504C34.4008 39.4699 33.1028 39.0748 31.8162 38.4992C31.6807 38.4428 31.6017 38.296 31.6243 38.138C31.6469 37.9913 31.7597 37.8671 31.9065 37.8446C34.1864 37.5173 35.9697 37.6188 37.5159 38.1606C37.8884 38.296 38.4979 38.6346 38.9268 38.962C39.0622 39.0861 39.0961 39.3006 38.9832 39.4473Z" fill="#1866FF"/>
<path d="M0.111816 54.6388C0.111816 56.4898 1.2292 60 5.45042 60H42.5497C44.4008 60 47.8883 58.8826 47.8883 54.6388V16.6591L32.5159 1.21896C32.5046 1.20767 32.4933 1.19639 32.482 1.1851C32.4707 1.17381 32.4482 1.16253 32.4369 1.15124L31.2969 0H5.45042C3.61069 0 0.111816 1.11738 0.111816 5.36117V54.6388ZM32.4143 4.14221C32.4143 4.00677 32.4933 3.88262 32.6287 3.82619C32.7529 3.76975 32.8996 3.80361 33.0012 3.90519L43.9493 14.8984C44.0509 15 44.0734 15.1354 44.017 15.2709C43.9606 15.4063 43.8364 15.474 43.701 15.474H36.2066C33.4301 15.474 32.4256 13.4312 32.4143 11.693V4.14221ZM5.45042 1.54628H30.5068C30.5971 1.54628 30.6874 1.58014 30.7439 1.64786L30.7552 1.65914C30.8229 1.72686 30.8567 1.80587 30.8567 1.89616V11.6704C30.8567 13.5214 31.9741 17.009 36.1953 17.009H45.9132C46.0035 17.009 46.0938 17.0429 46.1502 17.1106L46.2292 17.1896C46.2969 17.2573 46.3308 17.3363 46.3308 17.4266V54.6275C46.3308 57.4041 44.2879 58.4199 42.5385 58.4312H5.45042C2.68518 58.4312 1.68067 56.377 1.65809 54.6275V5.3386C1.65809 2.58465 3.70098 1.56885 5.45042 1.54628Z" fill="#1866FF"/>
</svg>
