<svg width="60" height="60" viewBox="0 0 60 60" fill="none" xmlns="http://www.w3.org/2000/svg">
<g clip-path="url(#clip0_407_9282)">
<path d="M42.3967 21.7149L20.1986 10.3912C19.9739 10.2788 19.693 10.2901 19.4796 10.4136C19.2549 10.5484 19.1313 10.7843 19.1313 11.0427V33.7126C19.1313 33.971 19.2662 34.2069 19.4796 34.3417C19.6032 34.4091 19.7267 34.4541 19.8615 34.4541C19.9739 34.4541 20.0862 34.4316 20.1986 34.3754L42.3967 23.0405C42.6438 22.9169 42.8011 22.6585 42.8011 22.3889C42.8011 22.0968 42.6438 21.8497 42.3967 21.7149ZM20.603 32.5106V12.2447L40.442 22.3777L20.603 32.5106Z" fill="#1866FF"/>
<path d="M52.5744 0.426758H7.42558C3.33645 0.426758 0 3.76321 0 7.85233V36.9031C0 41.0034 3.33645 44.3286 7.42558 44.3286H52.5744C56.6636 44.3286 60 40.9922 60 36.9031V7.85233C60 3.76321 56.6636 0.426758 52.5744 0.426758ZM58.5284 36.9031C58.5284 40.1834 55.8547 42.857 52.5744 42.857H7.42558C4.14529 42.857 1.47163 40.1834 1.47163 36.9031V7.85233C1.47163 4.57205 4.14529 1.89839 7.42558 1.89839H52.5744C55.8547 1.89839 58.5284 4.57205 58.5284 7.85233V36.9031Z" fill="#1866FF"/>
<path d="M59.2586 52.754H17.1092C16.7384 49.7434 14.1771 47.418 11.0766 47.418C7.97604 47.418 5.41472 49.7434 5.044 52.754H0.741434C0.337016 52.754 0 53.0798 0 53.4955C0 53.9111 0.325782 54.2369 0.741434 54.2369H5.05523C5.42595 57.2364 7.98727 59.573 11.0878 59.573C14.1884 59.573 16.7497 57.2364 17.1204 54.2369H59.2698C59.6742 54.2369 60.0112 53.9111 60.0112 53.4955C60.0112 53.0798 59.663 52.754 59.2586 52.754ZM11.0766 58.0901C8.53773 58.0901 6.4707 56.0231 6.4707 53.4842C6.4707 50.9454 8.53773 48.8784 11.0766 48.8784C13.6154 48.8784 15.6825 50.9454 15.6825 53.4842C15.6825 56.0231 13.6154 58.0901 11.0766 58.0901Z" fill="#1866FF"/>
</g>
<defs>
<clipPath id="clip0_407_9282">
<rect width="60" height="59.1462" fill="white" transform="translate(0 0.426758)"/>
</clipPath>
</defs>
</svg>
