<svg width="40" height="40" viewBox="0 0 40 40" fill="none" xmlns="http://www.w3.org/2000/svg">
<path d="M11.1824 0.191008C12.1014 -0.509829 13.3269 0.891845 12.2546 1.59265C11.4887 2.15332 11.1824 2.71401 11.1824 3.13448C11.1824 4.11566 13.3269 5.5173 13.4801 7.62012C13.6333 8.88166 13.0206 9.86284 11.9483 10.4235C10.8761 10.9841 9.8038 9.58248 10.8761 9.02184C11.4888 8.60134 11.7951 8.46117 11.642 7.7603C11.642 5.93812 9.49743 4.95694 9.34424 2.9943C9.34424 2.1533 9.80378 1.17212 11.1824 0.190937L11.1824 0.191008Z" fill="#1866FF"/>
<path d="M7.81235 12.8069H27.8794C30.3303 12.8069 32.6283 14.4889 33.2409 16.5915C36.1514 16.5915 39.0621 16.7316 39.828 19.8153C40.4407 22.058 39.3684 24.5813 37.3771 25.983C36.3048 26.824 35.0793 27.3846 33.3944 27.5248C32.4753 32.9916 27.42 37.0562 21.4461 37.0562H14.0932C7.5062 37.0562 2.14502 32.0099 2.14502 25.9825V17.9926C2.14502 15.1893 4.74905 12.8062 7.81298 12.8062L7.81235 12.8069ZM33.5479 18.4139V25.8431C34.6201 25.5627 35.5392 25.1422 36.1519 24.5815C37.5306 23.6003 38.4496 21.7782 37.9901 20.2361C37.3773 18.2737 35.386 18.2737 33.5476 18.4139L33.5479 18.4139ZM27.8799 14.6294H7.8129C5.66836 14.6294 3.9834 16.1712 3.9834 17.9934V25.9832C3.9834 31.0295 8.57909 35.2343 14.0933 35.2343H21.4462C26.961 35.2343 31.5561 31.029 31.5561 25.9832V17.9934C31.5561 16.1712 29.8712 14.6294 27.8798 14.6294H27.8799Z" fill="#1866FF"/>
<path d="M0.919095 39.9999C-0.306365 39.9999 -0.306365 38.1777 0.919095 38.1777H34.6198C35.9985 38.1777 35.9985 39.9999 34.6198 39.9999H0.919095Z" fill="#1866FF"/>
<path d="M17.4631 0.191008C18.5354 -0.509829 19.6076 0.891845 18.6886 1.59265C17.7695 2.15332 17.4631 2.71401 17.4631 3.13448C17.6163 4.11566 19.7608 5.5173 19.914 7.62012C19.914 8.88166 19.4545 9.86284 18.2291 10.4235C17.1568 10.9842 16.2377 9.58248 17.31 9.02184C17.9227 8.60134 18.0759 8.46117 18.0759 7.7603C17.9227 5.93812 15.7781 4.95694 15.7781 2.9943C15.625 2.1533 16.0845 1.17212 17.4631 0.190937L17.4631 0.191008Z" fill="#1866FF"/>
<path d="M23.897 0.191008C24.816 -0.509829 26.0415 0.891845 24.9692 1.59265C24.2033 2.15332 23.897 2.71401 23.897 3.13448C23.897 4.11566 26.0415 5.5173 26.1947 7.62012C26.3479 8.88166 25.7352 9.86284 24.6629 10.4235C23.5907 10.9842 22.5184 9.58248 23.5907 9.02184C24.2034 8.60134 24.5097 8.46117 24.3566 7.7603C24.3566 5.93812 22.212 4.95694 22.0588 2.9943C22.0588 2.1533 22.5184 1.17212 23.897 0.190937L23.897 0.191008Z" fill="#1866FF"/>
</svg>
