<svg width="58" height="60" viewBox="0 0 58 60" fill="none" xmlns="http://www.w3.org/2000/svg">
<path d="M33.5518 0.0500488C34.3518 0.350049 34.9518 0.850049 35.4518 1.45005C36.4518 2.75005 37.4518 3.95005 38.4518 5.25005C39.5518 6.85005 40.1518 8.65005 40.0518 10.65C39.9518 11.95 39.6518 13.15 39.0518 14.35C38.5518 15.35 37.9518 16.35 37.4518 17.35C37.1518 17.95 36.8518 18.55 36.5518 19.15C36.0518 20.05 35.8518 20.85 36.0518 21.75C36.2518 22.4501 36.6518 22.85 37.3518 22.85C38.0518 22.85 38.6518 22.55 38.8518 21.85C39.0518 21.35 38.9518 20.95 38.5518 20.55C38.4518 20.45 38.3518 20.35 38.2518 20.25C37.9518 19.85 37.8518 19.45 38.1518 19.05C38.4518 18.75 38.9518 18.65 39.3518 18.85C40.5518 19.55 41.0518 21.15 40.4518 22.35C39.7518 24.05 38.1518 24.75 36.4518 24.25C36.3518 24.25 36.2518 24.15 36.1518 24.15C35.7518 26.15 35.3518 28.15 34.9518 30.15C35.6518 30.25 36.5518 30.35 37.1518 30.85C39.2518 28.55 42.8518 29.75 42.9518 32.9501C44.9518 33.55 45.6518 34.25 45.8518 36.25C46.8518 36.35 47.7518 36.75 48.3518 37.55C48.9518 38.35 49.0518 39.35 48.7518 40.35C49.8518 40.65 50.6518 41.4501 50.9518 42.55C51.0518 42.4501 51.1518 42.45 51.2518 42.35C52.1518 41.85 52.9518 41.8501 53.7518 42.4501C54.7518 43.25 55.7518 44.15 56.6518 45.05C57.6518 45.9501 57.5518 47.25 56.5518 48.25C55.2518 49.35 53.9518 50.4501 52.6518 51.55C50.0518 53.75 47.4518 55.95 44.8518 58.15C44.6518 58.35 44.4518 58.45 44.2518 58.65C43.3518 59.25 42.1518 59.1501 41.4518 58.25C40.6518 57.05 39.9518 55.85 39.2518 54.65C39.1518 54.45 39.0518 54.1501 38.9518 53.9501C38.8518 53.9501 38.6518 53.9501 38.5518 53.9501C37.1518 54.05 35.7518 54.1501 34.4518 54.25C34.0518 54.25 33.7518 54.35 33.4518 54.75C33.2518 55.05 32.9518 55.25 32.7518 55.55C32.3518 55.9501 31.8518 55.9501 31.4518 55.55C31.1518 55.25 31.1518 54.75 31.4518 54.35C31.8518 53.85 32.3518 53.3501 32.8518 52.9501C33.0518 52.75 33.2518 52.75 33.5518 52.65C35.0518 52.55 36.5518 52.35 37.9518 52.35C39.0518 52.25 40.0518 51.9501 40.9518 51.25C41.1518 51.1501 41.3518 50.95 41.5518 50.85C39.0518 47.45 36.6518 44.1501 34.1518 40.75C34.0518 40.9501 33.9518 41.05 33.8518 41.15C33.6518 41.35 33.5518 41.65 33.3518 41.85C33.0518 42.25 32.5518 42.35 32.1518 42.15C31.7518 41.85 31.6518 41.3501 31.9518 40.9501C32.3518 40.3501 32.7518 39.6501 32.7518 38.9501C32.7518 38.6501 32.8518 38.25 32.8518 37.9501C32.8518 37.6501 32.9518 37.35 33.2518 37.15C34.2518 36.35 35.6518 36.35 36.5518 37.15C36.9518 37.55 37.3518 37.9501 37.7518 38.4501C38.4518 39.25 38.9518 39.25 39.7518 38.4501C39.8518 38.3501 39.9518 38.25 40.0518 38.15C40.4518 37.65 40.4518 37.25 40.0518 36.75C40.0518 36.6501 39.9518 36.65 39.9518 36.55C38.8518 35.35 37.6518 34.1501 36.5518 32.9501C35.9518 32.3501 35.2518 32.05 34.3518 32.35C34.0518 32.45 33.8518 32.55 33.6518 32.75C32.7518 33.6501 31.7518 34.45 30.8518 35.35C30.4518 35.75 30.1518 36.35 29.9518 36.85C28.8518 39.55 27.7518 42.15 26.6518 44.85C26.4518 45.35 26.1518 45.6501 25.7518 45.9501C20.6518 49.8501 15.4518 53.85 10.3518 57.75C10.1518 57.85 9.95184 58.05 9.75184 58.25C10.0518 58.25 10.2518 58.25 10.4518 58.25C15.9518 58.25 21.4518 58.25 26.9518 58.25C27.3518 58.25 27.6518 58.15 27.9518 57.85C28.1518 57.65 28.3518 57.4501 28.5518 57.25C28.9518 56.9501 29.3518 57.05 29.6518 57.35C29.9518 57.65 30.0518 58.1501 29.7518 58.4501C29.3518 58.9501 28.9518 59.35 28.4518 59.75C28.3518 59.85 28.0518 59.9501 27.8518 59.9501C27.7518 59.9501 27.5518 59.9501 27.3518 59.9501C20.7518 59.9501 14.1518 59.9501 7.65184 59.9501C7.45184 59.9501 7.25184 59.9501 7.05184 59.9501C6.65184 59.9501 6.45184 59.75 6.35184 59.35C6.25184 59.05 6.35184 58.6501 6.55184 58.4501C6.65184 58.3501 6.85184 58.25 6.95184 58.15C12.8518 53.65 18.6518 49.15 24.5518 44.65C24.8518 44.45 25.0518 44.15 25.1518 43.85C26.1518 41.45 27.0518 39.05 28.0518 36.65C28.3518 35.85 28.6518 35.05 29.2518 34.35C27.5518 34.35 25.9518 34.35 24.2518 34.35C24.2518 34.75 24.2518 35.15 24.2518 35.55C24.1518 37.25 22.7518 38.4501 20.9518 38.4501C19.7518 38.4501 18.9518 37.75 18.4518 36.65C18.2518 36.25 18.4518 35.75 18.8518 35.55C19.2518 35.35 19.6518 35.45 19.9518 35.85C19.9518 35.95 20.0518 35.9501 20.0518 36.05C20.3518 36.55 20.7518 36.85 21.2518 36.75C21.8518 36.6501 22.2518 36.35 22.4518 35.65C22.6518 34.85 22.3518 34.15 21.5518 33.85C20.5518 33.45 19.5518 33.6501 18.5518 33.9501C17.5518 34.25 16.4518 34.65 15.4518 35.05C14.1518 35.4501 12.8518 35.8501 11.4518 35.9501C9.35184 36.05 7.55184 35.35 5.85184 34.05C5.15184 33.4501 4.45184 32.85 3.85184 32.15C2.95184 31.25 2.15184 30.25 1.35184 29.25C0.251837 27.9501 0.451837 26.45 1.85184 25.45C3.15184 24.55 4.65184 24.25 6.25184 24.65C6.75184 24.75 7.15184 24.85 7.65184 24.95C8.05184 25.05 8.45184 24.95 8.95184 24.65C8.45184 24.05 7.95184 23.55 7.55184 22.95C7.25184 23.05 7.05184 23.15 6.75184 23.25C6.15184 23.35 5.65184 23.25 5.35184 22.85C4.85184 22.35 4.45184 21.75 3.95184 21.25C3.35184 20.55 3.45184 19.65 4.15184 19.05C4.95184 18.35 5.75184 17.65 6.55184 17.05C12.4518 12.05 18.2518 7.15005 24.1518 2.25005C24.4518 1.95005 24.7518 1.75005 25.1518 1.75005C25.7518 1.65005 26.1518 1.85005 26.5518 2.25005C26.9518 2.75005 27.4518 3.25005 27.8518 3.85005C28.3518 4.55005 28.3518 5.25005 27.6518 6.05005C28.1518 6.65005 28.5518 7.15005 29.0518 7.75005C29.4518 7.45005 29.6518 7.05005 29.6518 6.65005C29.6518 6.25005 29.6518 5.85005 29.5518 5.45005C29.3518 3.65005 29.9518 2.05005 31.3518 0.850049C31.6518 0.550049 32.1518 0.350049 32.5518 0.150049C32.8518 0.0500488 33.1518 0.0500488 33.5518 0.0500488ZM6.45184 21.45C7.25184 20.75 8.05184 20.05 8.95184 19.35C9.15184 19.25 9.25184 19.05 9.45184 18.95C9.85184 18.75 10.2518 18.85 10.5518 19.15C10.7518 19.45 10.7518 19.9501 10.5518 20.25C10.4518 20.35 10.2518 20.55 10.1518 20.65C9.75184 20.95 9.35184 21.35 8.95184 21.65C8.95184 21.95 8.95184 22.05 9.05184 22.05C10.3518 23.65 11.6518 25.25 13.0518 26.75C16.0518 30.15 19.9518 31.95 24.4518 32.55C26.6518 32.85 28.8518 32.55 31.0518 32.25C31.2518 32.25 31.3518 32.15 31.5518 32.05C31.9518 31.75 32.2518 31.45 32.6518 31.15C32.7518 31.05 32.8518 30.85 32.8518 30.75C33.4518 28.65 34.0518 26.65 34.2518 24.45C34.5518 19.85 33.3518 15.65 30.4518 12.05C29.1518 10.45 27.8518 8.95005 26.5518 7.45005C26.4518 7.35005 26.3518 7.25005 26.2518 7.05005C25.9518 7.35005 25.6518 7.55005 25.4518 7.75005C21.5518 11.05 17.6518 14.25 13.7518 17.55C13.6518 17.65 13.4518 17.75 13.3518 17.85C12.9518 18.05 12.5518 18.05 12.2518 17.65C11.9518 17.35 11.9518 16.85 12.2518 16.55C12.3518 16.35 12.5518 16.25 12.7518 16.15C17.0518 12.55 21.3518 8.95005 25.6518 5.35005C25.8518 5.15005 26.1518 4.95005 26.3518 4.75005C25.9518 4.35005 25.6518 3.95005 25.3518 3.55005C18.6518 9.05005 12.0518 14.65 5.45184 20.25C5.75184 20.65 6.15184 21.05 6.45184 21.45ZM55.7518 47.05C55.7518 46.9501 55.6518 46.95 55.6518 46.85C55.6518 46.85 55.6518 46.85 55.6518 46.75C54.6518 45.85 53.7518 44.95 52.7518 44.15C52.5518 43.95 52.3518 44.05 52.2518 44.15C52.0518 44.35 51.7518 44.55 51.5518 44.75C48.0518 47.6501 44.6518 50.55 41.1518 53.4501C40.7518 53.8501 40.7518 53.85 41.0518 54.35C41.3518 54.95 41.7518 55.4501 42.0518 56.05C42.2518 56.4501 42.5518 56.85 42.7518 57.25C42.9518 57.55 43.0518 57.55 43.3518 57.35C43.4518 57.25 43.5518 57.25 43.5518 57.15C47.4518 53.85 51.3518 50.55 55.2518 47.25C55.4518 47.25 55.5518 47.15 55.7518 47.05ZM35.2518 17.35C36.0518 15.85 37.0518 14.55 37.6518 12.95C37.9518 12.15 38.1518 11.35 38.2518 10.55C38.3518 9.25005 37.9518 8.05005 37.3518 6.95005C36.3518 5.05005 34.8518 3.55005 33.5518 1.95005C33.2518 1.55005 32.8518 1.65005 32.5518 1.95005C31.8518 2.65005 31.4518 3.45005 31.3518 4.45005C31.3518 4.95005 31.3518 5.35005 31.4518 5.85005C31.5518 6.95005 31.2518 7.95005 30.4518 8.85005C30.3518 8.95005 30.3518 8.95005 30.2518 9.05005C32.4518 11.55 34.2518 14.15 35.2518 17.35ZM17.4518 32.4501C14.4518 30.9501 12.1518 28.75 10.1518 26.15C9.95184 26.25 9.85184 26.35 9.65184 26.45C9.05184 26.85 8.35184 26.95 7.65184 26.85C7.15184 26.75 6.65184 26.65 6.25184 26.55C5.15184 26.25 4.05184 26.35 3.05184 27.05C2.45184 27.45 2.35184 27.75 2.85184 28.35C3.55184 29.15 4.15184 29.9501 4.85184 30.75C5.65184 31.65 6.55184 32.55 7.65184 33.25C9.15184 34.1501 10.6518 34.45 12.3518 34.15C14.0518 33.75 15.7518 33.05 17.4518 32.4501ZM34.4518 38.35C35.3518 39.65 36.3518 40.95 37.2518 42.15C38.1518 43.45 39.0518 44.6501 40.0518 45.9501C40.9518 47.25 41.9518 48.4501 42.8518 49.75C43.1518 49.4501 43.4518 49.25 43.7518 48.9501C42.3518 48.05 41.9518 46.75 42.3518 45.25C40.8518 44.75 40.0518 43.65 39.9518 42.05C39.8518 42.05 39.7518 42.05 39.5518 41.9501C38.5518 41.75 37.7518 41.25 37.1518 40.35C37.1518 40.25 37.0518 40.25 37.0518 40.15C36.4518 39.55 35.9518 38.95 35.3518 38.35C35.1518 38.25 34.8518 38.15 34.4518 38.35ZM41.6518 42.25C41.7518 42.4501 41.7518 42.65 41.8518 42.85C42.2518 43.65 43.2518 43.85 43.9518 43.25C44.8518 42.4501 45.7518 41.55 46.6518 40.75C46.7518 40.6501 46.7518 40.65 46.8518 40.55C47.3518 39.9501 47.3518 39.15 46.8518 38.65C46.3518 38.15 45.5518 38.05 44.9518 38.55C44.0518 39.35 43.1518 40.25 42.2518 41.05C41.8518 41.55 41.6518 41.85 41.6518 42.25ZM49.3518 43.85C49.3518 43.25 49.2518 42.95 48.9518 42.65C48.4518 42.15 47.7518 42.15 47.1518 42.65C46.2518 43.45 45.3518 44.25 44.4518 45.05C44.3518 45.15 44.1518 45.35 44.0518 45.55C43.6518 46.25 43.9518 47.1501 44.6518 47.4501C44.9518 47.55 45.2518 47.55 45.5518 47.35C46.6518 46.45 47.7518 45.55 48.8518 44.65C49.2518 44.45 49.3518 44.15 49.3518 43.85ZM40.4518 40.25C40.6518 40.1501 40.7518 40.05 40.9518 39.9501C41.8518 39.1501 42.7518 38.25 43.6518 37.4501C43.8518 37.25 44.0518 36.95 44.0518 36.65C44.1518 36.05 43.8518 35.45 43.2518 35.15C42.6518 34.85 42.0518 35.05 41.5518 35.65C42.0518 36.35 42.2518 37.25 41.9518 38.05C41.7518 39.05 41.0518 39.6501 40.4518 40.25ZM40.2518 34.35C41.3518 33.45 41.1518 32.55 40.6518 32.05C40.1518 31.55 39.1518 31.35 38.3518 32.35C39.0518 33.05 39.6518 33.65 40.2518 34.35Z" fill="#1866FF"/>
<path d="M20.652 21.9502C20.352 20.8502 20.152 19.8502 19.852 18.8502C19.852 18.7502 19.752 18.6502 19.752 18.5502C19.652 18.1502 19.752 17.7502 20.052 17.4502C20.452 17.1502 20.852 17.1502 21.252 17.3502C22.052 17.6502 22.852 18.0502 23.652 18.3502C23.952 18.4502 24.152 18.5502 24.452 18.6502C25.352 18.1502 26.152 17.6502 26.952 17.0502C27.152 16.9502 27.252 16.8502 27.452 16.7502C28.252 16.3502 29.052 16.8502 28.952 17.6502C28.952 18.2502 28.852 18.8502 28.752 19.5502C28.652 20.1502 28.652 20.6502 28.552 21.2502C29.352 21.9502 30.152 22.6502 30.952 23.2502C31.352 23.6502 31.752 23.9502 31.552 24.5502C31.352 25.1502 30.952 25.2502 30.352 25.3502C29.452 25.5502 28.552 25.7502 27.652 25.9502C27.352 26.0502 27.152 26.1502 27.052 26.4502C26.652 27.3502 26.352 28.2502 25.952 29.1502C25.852 29.4502 25.652 29.6502 25.452 29.8502C24.952 30.1502 24.352 30.0502 24.052 29.4502C23.652 28.7502 23.252 28.0502 22.852 27.3502C22.652 27.0502 22.452 26.7502 22.252 26.3502C21.252 26.2502 20.252 26.1502 19.352 26.1502C19.152 26.1502 18.952 26.1502 18.752 26.1502C17.752 25.9502 17.452 25.1502 18.052 24.3502C18.452 23.8502 18.852 23.4502 19.252 22.9502C19.852 22.8502 20.252 22.4502 20.652 21.9502ZM25.052 27.5502C25.352 26.8502 25.652 26.2502 25.852 25.6502C26.052 24.9502 26.452 24.6502 27.152 24.5502C27.752 24.4502 28.452 24.2502 29.152 24.1502C28.952 23.9502 28.852 23.8502 28.652 23.7502C28.252 23.3502 27.852 23.0502 27.352 22.6502C26.952 22.3502 26.852 21.9502 26.852 21.5502C26.852 21.3502 26.852 21.1502 26.952 20.9502C27.052 20.4502 27.052 19.8502 27.152 19.2502C26.452 19.6502 25.952 19.9502 25.352 20.3502C24.852 20.7502 24.352 20.7502 23.752 20.4502C23.152 20.1502 22.552 19.9502 21.852 19.6502C21.852 19.8502 21.852 20.0502 21.952 20.1502C22.052 20.7502 22.252 21.2502 22.352 21.8502C22.452 22.3502 22.352 22.7502 22.052 23.0502C21.652 23.4502 21.252 23.9502 20.852 24.3502C20.752 24.4502 20.652 24.5502 20.552 24.7502C21.352 24.8502 22.052 24.8502 22.752 24.9502C23.252 24.9502 23.652 25.1502 23.952 25.6502C24.052 25.8502 24.252 26.0502 24.352 26.3502C24.552 26.6502 24.752 27.0502 25.052 27.5502Z" fill="#1866FF"/>
</svg>
