<svg width="40" height="40" viewBox="0 0 40 40" fill="none" xmlns="http://www.w3.org/2000/svg">
<path d="M0 38.7999C0.266667 38.3999 0.666667 38.1999 1.13333 38.2666C1.26667 38.2666 1.46667 38.2666 1.66667 38.2666C1.66667 38.0666 1.66667 37.9333 1.66667 37.7999C1.66667 34.9999 1.66667 32.1999 1.66667 29.3999C1.66667 29.2666 1.66667 29.0666 1.73333 28.9333C1.86667 28.5333 2.2 28.3333 2.66667 28.2666C3.13333 28.2666 3.6 28.2666 4 28.2666C5.06667 28.2666 6.2 28.2666 7.26667 28.2666C7.46667 28.2666 7.6 28.2666 7.8 28.3333C8.2 28.4666 8.33333 28.7333 8.4 29.0666C8.4 29.1999 8.4 29.3333 8.4 29.3999C8.4 32.1333 8.4 34.9333 8.4 37.6666C8.4 37.7999 8.4 37.9999 8.4 38.1333C8.66667 38.1999 11 38.2666 11.6667 38.1999C11.6667 38.0666 11.6667 37.9333 11.6667 37.7333C11.6667 34.9999 11.6667 32.2666 11.6667 29.5333C11.6667 26.7333 11.6667 23.8666 11.6667 21.0666C11.6667 20.9333 11.6667 20.8666 11.6667 20.7333C11.6667 20.3333 12.0667 19.9333 12.5333 19.9333C14.1333 19.9333 15.7333 19.9333 17.3333 19.9333C17.4 19.9333 17.5333 19.9333 17.6 19.9333C18 19.8666 18.3333 20.2666 18.4 20.6666C18.4 20.7999 18.4 20.9333 18.4 21.0666C18.4 26.5999 18.4 32.1333 18.4 37.6666C18.4 37.7999 18.4 37.9999 18.4 38.1999C19.4667 38.1999 20.5333 38.1999 21.6667 38.1999C21.6667 37.9999 21.6667 37.8666 21.6667 37.6666C21.6667 33.2666 21.6667 28.8666 21.6667 24.5333C21.6667 24.4666 21.6667 24.3333 21.6667 24.2666C21.6 23.5999 22.0667 23.1999 22.7333 23.1999C24.2667 23.1999 25.8 23.1999 27.4 23.1999C28.0667 23.1999 28.4667 23.5999 28.4667 24.2666C28.4667 28.7333 28.4667 33.1999 28.4667 37.6666C28.4667 37.7999 28.4667 37.9999 28.4667 38.1333C28.7333 38.1999 31.1333 38.2666 31.7333 38.1999C31.7333 38.0666 31.7333 37.9333 31.7333 37.7999C31.7333 36.9999 31.7333 36.1333 31.7333 35.3333C31.7333 28.3333 31.7333 21.3999 31.7333 14.3999C31.7333 14.2666 31.7333 14.0666 31.7333 13.9333C31.8 13.5333 32.1333 13.2666 32.6 13.2666C32.6667 13.2666 32.8 13.2666 32.8667 13.2666C34.3333 13.2666 35.8 13.2666 37.3333 13.2666C37.5333 13.2666 37.6667 13.2666 37.8667 13.3333C38.2667 13.4666 38.4667 13.7333 38.4667 14.1333C38.4667 14.2666 38.4667 14.3999 38.4667 14.5333C38.4667 22.2666 38.4667 29.9999 38.4667 37.7333C38.4667 37.8666 38.4667 38.0666 38.4667 38.2666C38.7333 38.2666 38.9333 38.2666 39.1333 38.2666C39.3333 38.2666 39.5333 38.3333 39.6667 38.3999C40.0667 38.5999 40.2 38.9999 40.0667 39.4666C40 39.7999 39.6667 40.0666 39.2667 39.9999C39.1333 39.9999 39 39.9999 38.9333 39.9999C26.4 39.9999 13.8667 39.9999 1.33333 39.9999C1.26667 39.9999 1.2 39.9999 1.13333 39.9999C0.666667 40.0666 0.4 39.8666 0.133333 39.5333C0 39.2666 0 39.0666 0 38.7999ZM33.3333 14.9999C33.3333 22.7333 33.3333 30.4666 33.3333 38.1999C34.4 38.1999 35.4667 38.1999 36.5333 38.1999C36.5333 30.4666 36.5333 22.7333 36.5333 14.9999C35.5333 14.9999 34.4667 14.9999 33.3333 14.9999ZM16.5333 38.1999C16.5333 38.1333 16.6 38.1333 16.6 38.1333C16.6 32.7999 16.6 27.3999 16.6 22.0666C16.6 21.9999 16.6 21.8666 16.6 21.7999C15.5333 21.7999 14.5333 21.7999 13.4667 21.7999C13.4667 21.8666 13.4 21.8666 13.4 21.8666C13.4 27.1999 13.4 32.5999 13.4 37.9333C13.4 37.9999 13.4 38.1333 13.4 38.1999C14.4667 38.1999 15.5333 38.1999 16.5333 38.1999ZM23.4 24.9999C23.4 25.0666 23.3333 25.0666 23.3333 25.0666C23.3333 29.3333 23.3333 33.5999 23.3333 37.8666C23.3333 37.9333 23.3333 38.0666 23.3333 38.1333C24.1333 38.1999 26.2667 38.1999 26.5333 38.0666C26.5333 33.7999 26.5333 29.5333 26.5333 25.2666C26.5333 25.1999 26.5333 25.0666 26.5333 24.9999C25.4667 24.9999 24.4667 24.9999 23.4 24.9999ZM3.4 29.9999C3.4 32.7333 3.4 35.4666 3.4 38.1999C4.46667 38.1999 5.53333 38.1999 6.6 38.1999C6.6 35.4666 6.6 32.7333 6.6 29.9999C5.53333 29.9999 4.46667 29.9999 3.4 29.9999Z" fill="#1866FF"/>
<path d="M35.4002 0C35.5335 0 35.7335 0 35.8669 0.0666667C36.0669 0.133333 36.2669 0.2 36.4669 0.333333C37.7335 0.933333 38.4669 2.33333 38.2669 3.73333C38.0669 5.26667 36.9335 6.4 35.5335 6.66667C34.8669 6.8 34.2669 6.66667 33.6669 6.46667C33.5335 6.4 33.4002 6.33333 33.2669 6.33333C33.2002 6.4 33.1335 6.46667 33.0669 6.53333C31.4669 8.13333 29.8002 9.8 28.2002 11.4C28.1335 11.4667 28.1335 11.4667 28.0669 11.5333C27.9335 11.6667 27.9335 11.7333 28.0002 11.8667C28.1335 12.1333 28.2002 12.4 28.2669 12.7333C28.6002 14.2 27.8669 15.7333 26.4669 16.4C25.6002 16.8 24.7335 16.8667 23.8002 16.5333C22.5335 16.0667 21.8669 15.1333 21.6002 13.8667C21.5335 13.6 21.6002 13.3333 21.6002 13.0667C21.6002 12.9333 21.5335 12.8667 21.4002 12.8C20.3335 12.4667 19.2669 12.2 18.2002 11.8667C18.1335 11.8667 18.0002 11.8 17.9335 11.8C16.7335 13.4667 14.8002 13.9333 13.0002 12.8L8.00021 16.8C8.46688 17.8 8.53355 18.8 8.06688 19.8C7.73355 20.5333 7.20021 21.0667 6.53355 21.4667C5.13355 22.2 3.46688 21.8667 2.46688 20.6C1.46688 19.4 1.33355 17.6667 2.40021 16.2667C3.26688 15.2 5.00021 14.5333 6.80021 15.5333C7.20021 15.2 7.60021 14.9333 8.00021 14.6C9.26688 13.6 10.5335 12.6 11.8002 11.6C11.9335 11.5333 11.9335 11.3333 11.9335 11.2C11.7335 10.6 11.6669 10 11.8002 9.33333C11.9335 8.8 12.1335 8.33333 12.4669 7.93333C12.8002 7.53333 13.2669 7.2 13.7335 6.93333C14.8669 6.46667 16.2002 6.6 17.2002 7.4C17.6002 7.73333 17.9335 8.2 18.2002 8.66667C18.4002 9.06667 18.4669 9.53333 18.4669 10C18.8669 10.1333 19.3335 10.2667 19.7335 10.3333C20.5335 10.5333 21.3335 10.8 22.1335 11C22.3335 11.0667 22.4669 11 22.6669 10.8667C23.0669 10.4667 23.6002 10.1333 24.2002 10C25.0002 9.8 25.8002 9.86667 26.5335 10.2C26.6002 10.2 26.6669 10.2667 26.7335 10.2667C26.8002 10.2 26.9335 10.0667 27.0002 10C28.6002 8.4 30.2002 6.8 31.8002 5.2C31.8669 5.13333 31.8669 5.13333 31.9335 5.06667C32.0002 5.06667 32.0002 4.93333 31.9335 4.8C31.7335 4.33333 31.6002 3.86667 31.6002 3.33333C31.6002 1.8 32.6002 0.533333 34.0669 0.0666667C34.2669 0.0666667 34.4002 0 34.5335 0H35.4002ZM16.6002 10C16.5335 9.06667 15.8669 8.4 14.9335 8.4C14.0002 8.4 13.3335 9.06667 13.3335 10C13.3335 10.8667 14.0002 11.6667 14.9335 11.6667C15.8669 11.6 16.6002 10.9333 16.6002 10ZM36.6002 3.33333C36.6002 2.33333 35.7335 1.66667 35.0002 1.66667C34.2002 1.66667 33.3335 2.33333 33.4002 3.33333C33.4002 4.2 34.0002 4.93333 35.0002 4.93333C35.9335 4.93333 36.5335 4.33333 36.6002 3.33333ZM25.0002 11.7333C24.2002 11.6667 23.3335 12.3333 23.3335 13.3333C23.3335 14.1333 23.9335 14.9333 24.9335 14.9333C25.8669 14.9333 26.5335 14.3333 26.6002 13.3333C26.6669 12.4 25.8002 11.6667 25.0002 11.7333ZM5.00021 16.7333C4.26688 16.6667 3.33355 17.3333 3.40021 18.3333C3.40021 19.1333 3.93355 19.9333 5.00021 19.9333C5.93355 19.9333 6.60021 19.3333 6.66688 18.3333C6.66688 17.4 5.80021 16.6667 5.00021 16.7333Z" fill="#1866FF"/>
</svg>
