<svg width="60" height="60" viewBox="0 0 60 60" fill="none" xmlns="http://www.w3.org/2000/svg">
<path d="M52.2 50.25C52.2 51.15 52.2 51.9 52.2 52.8C52.2 53.1 52.2 53.4 52.2 53.7C51.9 54.9 51.15 55.65 50.1 55.95C48.9 56.25 48 55.9501 47.1 55.05C46.2 54 45.3 52.95 44.4 51.9C43.95 51.45 43.65 51 43.2 50.55C43.05 50.4 42.9 50.4 42.75 50.25C41.7 50.25 40.65 50.25 39.45 50.25C39.45 50.4 39.6 50.55 39.6 50.7C40.2 52.35 40.65 54 40.65 55.65C40.65 57 40.65 58.5 40.65 59.8501C40.2 60 1.5 60 0 60C0 59.85 0 59.7001 0 59.55C0 58.2001 0 57 0 55.65C0 49.8 3.9 44.85 9.6 43.5C11.7 43.05 13.65 42.6 15.75 42C15.9 42 16.2 41.85 16.35 41.85C16.35 41.1 16.35 40.5 16.35 39.75C16.05 39.6 15.9 39.4501 15.6 39.3C13.35 37.8 12 35.85 11.7 33.3C11.7 33 11.55 32.85 11.25 32.55C9.6 30.9 8.55 29.1 7.95 26.85C7.65 25.2 7.5 23.7 7.95 22.05C8.7 19.95 10.2 18.4501 12.45 17.7001C12.75 17.55 13.05 17.4 13.2 17.25C15.45 14.85 18 13.65 21.15 13.5C22.35 13.5 23.7 13.5 24.9 13.8C26.1 14.1 27.3 14.7 28.35 15.45C28.5 15.6 28.65 15.75 28.95 15.9C28.95 15.6 28.95 15.45 28.95 15.3C28.95 13.8 28.95 12.15 28.95 10.65C28.95 8.40005 30.3 6.60005 32.4 6.00005C32.85 5.85005 33.45 5.85005 33.9 5.85005C35.25 5.85005 36.6 5.85005 37.95 5.85005C38.1 5.85005 38.4 5.85005 38.55 5.85005C38.7 3.90005 39.3 2.40005 40.8 1.35005C42.15 0.300049 43.5 -0.149951 44.85 4.88292e-05C47.4 0.150049 50.1 2.10005 50.25 5.70005C50.4 5.70005 50.55 5.70005 50.7 5.70005C52.2 5.70005 53.55 5.70005 55.05 5.70005C57.15 5.70005 59.1 7.05005 59.55 9.15005C59.85 9.75005 60 10.2 60 10.65C60 13.95 60 17.1 60 20.4C60 23.1 57.9 25.2 55.2 25.2C52.95 25.2 50.7 25.2 48.6 25.2C48.15 25.2 47.85 25.35 47.7 25.65C46.5 27 45.45 28.5 44.25 29.85C43.8 30.45 43.35 30.75 42.6 30.9C40.8 31.35 39 30 38.85 28.2C38.85 27.3 38.85 26.25 38.85 25.2C36.9 25.2 34.95 25.2 33 25.2C33 25.5 32.85 25.95 32.85 26.25C32.4 28.65 31.35 30.6 29.7 32.25C29.4 32.55 29.1 33 28.95 33.6C28.5 36.15 27 38.25 24.6 39.45C24.45 39.45 24.45 39.6 24.3 39.6C24.3 40.2 24.3 40.95 24.3 41.7C26.55 42.15 28.8 42.75 31.05 43.35C31.05 43.05 31.05 42.9 31.05 42.75C31.05 41.1 31.05 39.3 31.05 37.65C31.05 35.55 32.4 33.75 34.5 33.15C34.95 33 35.4 32.85 35.85 32.85C42.3 32.85 48.75 32.85 55.2 32.85C57.9 32.85 60 34.95 60 37.65C60 40.2 60 42.9 60 45.45C60 48.15 57.9 50.25 55.2 50.25C54.45 50.25 53.7 50.25 52.95 50.25C52.65 50.25 52.5 50.25 52.2 50.25ZM50.25 48.3C50.55 48.3 50.7 48.3 50.85 48.3C52.2 48.3 53.55 48.3 54.9 48.3C56.7 48.3 57.9 47.1 57.9 45.3C57.9 42.75 57.9 40.35 57.9 37.8C57.9 36.15 56.55 34.65 54.75 34.8C48.45 34.8 42.15 34.8 35.7 34.8C33.9 34.8 32.55 36.15 32.55 37.8C32.55 39.75 32.55 41.55 32.55 43.5C32.55 43.65 32.55 43.8 32.55 43.95C32.7 43.95 32.7 44.1 32.85 44.1C34.8 45 36.6 46.35 37.8 48.15C37.95 48.45 38.1 48.45 38.4 48.45C39.9 48.45 41.55 48.45 43.05 48.45C43.5 48.45 43.65 48.6 43.95 48.9C45.15 50.4 46.5 51.9 47.7 53.55C47.85 53.7001 48 54 48.15 54.15C48.45 54.45 48.75 54.4501 49.2 54.3C49.5 54.15 49.8 53.85 49.8 53.55C49.8 53.4 49.8 53.25 49.8 52.95C50.25 51.3 50.25 49.9501 50.25 48.3ZM48.15 10.35C48.3 10.5 48.45 10.5 48.6 10.65C51.45 12.15 53.25 14.4 53.85 17.4C54.15 18.4501 54 19.65 54 20.7001C54 20.85 54 21 54 21.15C52.8 21.3 35.1 21.15 34.65 21.15V21C34.65 20.4 34.65 19.8 34.65 19.2001C34.8 15.15 36.75 12.3 40.35 10.5C40.5 10.5 40.65 10.35 40.8 10.2C39.9 9.45005 39.3 8.55005 38.85 7.65005C37.2 7.65005 35.4 7.65005 33.75 7.65005C31.95 7.65005 30.75 8.85005 30.75 10.65C30.75 12.9 30.75 15.3 30.75 17.55C30.75 17.85 30.75 18.15 31.05 18.3C31.8 19.35 32.25 20.4 32.4 21.6C32.55 22.05 32.55 22.5 32.7 23.1C35.25 23.1 37.8 23.1 40.5 23.1C40.5 23.4 40.5 23.55 40.5 23.7001C40.5 24.9 40.5 26.25 40.5 27.45C40.5 27.6 40.5 27.75 40.5 27.9C40.5 28.35 40.8 28.65 41.25 28.8C41.7 28.95 42 28.8 42.3 28.65C42.45 28.5 42.6 28.35 42.75 28.2C44.1 26.7 45.3 25.05 46.65 23.55C46.95 23.25 47.1 23.1 47.55 23.1C50.1 23.1 52.5 23.1 55.05 23.1C56.85 23.1 58.2 21.75 58.2 19.9501C58.2 16.8 58.2 13.8 58.2 10.65C58.2 8.85005 56.85 7.50005 55.05 7.50005C53.55 7.50005 52.05 7.50005 50.55 7.50005C50.4 7.50005 50.25 7.50005 50.1 7.50005C49.65 8.85005 49.05 9.60005 48.15 10.35ZM28.95 30C29.1 29.7 29.25 29.55 29.4 29.4C30.3 28.05 30.75 26.4 30.9 24.75C31.2 20.85 28.95 17.25 25.2 15.9C23.85 15.45 22.5 15.3 21.15 15.3C18.45 15.45 16.2 16.5 14.4 18.6C14.1 18.9 13.95 19.05 13.5 19.2001C11.25 19.65 9.6 21.75 9.6 24.15C9.6 25.65 10.05 27.15 10.65 28.5C10.8 28.95 11.1 29.25 11.4 29.7C11.55 28.8 11.55 28.05 11.55 27.15C11.55 26.4 11.85 25.65 12.3 25.05C13.35 23.85 14.85 23.55 16.2 24.3C16.8 24.6 17.4 25.05 18 25.5C18.3 25.8 18.75 25.8 19.05 25.8C20.7 25.8 22.35 25.8 24 25.8C26.1 25.8 27.9 27.15 28.5 29.1C28.8 29.7 28.95 29.85 28.95 30ZM13.05 44.55C12 44.85 10.8 45 9.75 45.3C5.55 46.35 2.55 49.95 1.95 54.15C1.8 55.2 1.8 56.4001 1.8 57.6001C1.8 57.75 1.8 57.9 1.8 58.05C3.15 58.2001 7.05 58.05 7.65 58.05C7.65 56.25 7.65 54.3 7.65 52.3501C8.25 52.3501 8.85 52.3501 9.6 52.3501C9.6 54.3 9.6 56.25 9.6 58.05C12.3 58.05 15.15 58.05 17.85 58.05C16.35 53.55 14.7 49.05 13.05 44.55ZM27.6 44.55C25.95 49.05 24.3 53.55 22.65 58.05C25.5 58.05 28.2 58.05 30.9 58.05C30.9 56.1 30.9 54.1501 30.9 52.3501C31.2 52.3501 31.5 52.3501 31.8 52.3501C32.1 52.3501 32.4 52.35 32.85 52.5C32.85 54.45 32.85 56.25 32.85 58.2C34.8 58.2 36.75 58.2 38.7 58.2C38.7 57 38.7 55.65 38.55 54.45C37.95 50.4 35.7 47.4 31.95 45.9C30.6 45.15 29.1 45 27.6 44.55ZM13.5 29.85C13.5 30.6 13.5 31.2 13.5 31.95C13.5 32.4 13.5 33 13.65 33.45C14.55 37.2 18.15 39.15 21.3 38.55C24.6 37.9501 27.6 34.9501 26.85 30.3C26.7 28.95 25.5 27.9 24 27.9C22.2 27.9 20.4 27.9 18.45 27.9C18 27.9 17.7 27.75 17.4 27.6C16.8 27.15 16.05 26.7 15.45 26.25C15 25.95 14.55 25.8 14.1 26.1C13.8 26.55 13.5 27 13.5 27.6C13.5 28.35 13.5 29.1 13.5 29.85ZM52.2 19.35C52.2 16.65 50.7 13.95 48.15 12.6C45.3 11.1 42.6 11.4 39.9 13.2C38.1 14.4 36.6 17.1 36.9 19.35C42 19.35 47.1 19.35 52.2 19.35ZM44.55 1.95005C42.45 1.95005 40.65 3.75005 40.65 5.85005C40.65 7.95005 42.45 9.75005 44.55 9.75005C46.65 9.75005 48.45 7.95005 48.45 5.85005C48.3 3.60005 46.65 1.95005 44.55 1.95005ZM22.95 51.6001C22.05 50.25 20.55 48.45 20.25 48.15C19.35 49.35 18.45 50.4001 17.7 51.6001C18.3 53.1001 18.75 54.45 19.35 55.95H19.5C19.5 55.35 19.5 54.9 19.5 54.3C20.1 54.3 20.7 54.3 21.45 54.3C21.45 54.9 21.45 55.5 21.45 55.95C21.45 55.95 21.45 55.95 21.6 55.95C21.9 54.45 22.5 53.1001 22.95 51.6001ZM23.85 49.5C24.45 47.7 25.2 46.05 25.8 44.25C25.05 44.1 24.45 43.9501 23.7 43.8C22.95 44.7001 22.35 45.6 21.6 46.65C22.35 47.4 22.95 48.45 23.85 49.5ZM14.85 44.1C15.45 45.9 16.2 47.55 16.8 49.3501C17.55 48.3 18.3 47.25 19.05 46.35C18.3 45.45 17.7 44.4 16.95 43.5C16.35 43.8 15.6 43.95 14.85 44.1ZM20.25 44.85C20.85 43.95 21.45 43.2 22.05 42.45C22.05 42.3 22.2 42.3 22.2 42.15C22.2 41.55 22.2 41.1 22.2 40.5C21.45 40.5 20.85 40.65 20.25 40.65C19.65 40.65 19.05 40.5 18.3 40.5C18.3 41.1 18.3 41.55 18.3 42C18.3 42.15 18.3 42.3 18.45 42.45C19.05 43.2 19.65 43.95 20.25 44.85ZM20.55 58.05C20.85 57.4501 21 56.8501 21.3 56.1001C20.55 56.1001 19.95 56.1001 19.35 56.1001C19.65 56.7001 19.8 57.3 20.1 57.9C20.25 58.05 20.4 58.05 20.55 58.05Z" fill="#1866FF"/>
</svg>
